#!OML:ASF E:\motion texture\Top Level 1\Subject 1\Session 1\male.ASF
:FULLY-SPECIFIED
:DEGREES
360
root 9.91143 17.8875 4.61031 36.1078 -75.6396 -27.7343
lowerback 2.10209 4.6237 -3.64959
upperback 3.18199 5.98448 -8.5849
thorax 2.69164 2.9168 -6.90719
lowerneck -8.93451 14.8423 2.98264
upperneck 31.6342 22.2496 -7.36731
head 13.3921 8.90867 -0.159696
rclavicle -7.4743e-014 7.31528e-014
rhumerus -25.7873 -5.5075 -84.656
rradius 27.3078
rwrist 16.0373
rhand -9.22959 -22.0617
rfingers 7.12502
rthumb 16.7254 -51.3612
lclavicle -7.4743e-014 7.31528e-014
lhumerus -31.1272 34.0274 54.9347
lradius 24.4436
lwrist -36.3389
lhand -11.2743 26.1817
lfingers 7.12502
lthumb 14.7562 55.6364
rfemur -33.5057 -12.4162 26.3017
rtibia 21.736
rfoot -7.05705 -20.0789
rtoes 4.43023
lfemur -9.4469 -9.21948 -6.21003
ltibia 24.3577
lfoot -14.3324 -6.99003
ltoes -10.0418
361
root 9.77728 17.8796 4.58681 35.2905 -75.355 -26.8759
lowerback 2.10646 4.63448 -3.64713
upperback 3.18933 6.00052 -8.59332
thorax 2.6998 2.92572 -6.91761
lowerneck -8.90758 14.8244 2.98641
upperneck 31.6378 22.224 -7.35408
head 13.3845 8.90296 -0.161614
rclavicle 1.59028e-014 5.40694e-014
rhumerus -25.8383 -5.71693 -84.4781
rradius 27.2459
rwrist 16.0522
rhand -9.28536 -22.0833
rfingers 7.12502
rthumb 16.6717 -51.3873
lclavicle 1.59028e-014 5.40694e-014
lhumerus -31.4834 34.2617 54.7735
lradius 24.3247
lwrist -36.3095
lhand -11.035 26.1561
lfingers 7.12502
lthumb 14.9868 55.5938
rfemur -33.3896 -11.7925 25.7239
rtibia 20.9323
rfoot -6.94056 -20.4827
rtoes 4.44346
lfemur -9.19397 -9.34889 -6.08771
ltibia 24.4716
lfoot -14.2967 -7.32694
ltoes -10.5288
362
root 9.64188 17.8713 4.56246 34.5221 -75.075 -26.0745
lowerback 2.10436 4.64651 -3.64406
upperback 3.20129 6.01942 -8.59428
thorax 2.7159 2.93608 -6.91959
lowerneck -8.88355 14.807 2.98573
upperneck 31.637 22.2018 -7.3472
head 13.3764 8.89765 -0.16448
rclavicle 6.83819e-014 9.54166e-015
rhumerus -25.876 -5.90543 -84.3046
rradius 27.1904
rwrist 16.0601
rhand -9.34358 -22.1041
rfingers 7.12502
rthumb 16.6157 -51.4129
lclavicle 6.83819e-014 9.54166e-015
lhumerus -31.8299 34.5035 54.6239
lradius 24.219
lwrist -36.235
lhand -10.7926 26.1371
lfingers 7.12502
lthumb 15.2203 55.5572
rfemur -33.2731 -11.1588 25.1515
rtibia 20.2451
rfoot -6.83457 -20.8914
rtoes 4.51348
lfemur -8.94355 -9.47939 -5.95473
ltibia 24.6055
lfoot -14.2373 -7.67817
ltoes -11.0253
363
root 9.50508 17.8626 4.53717 33.7975 -74.7991 -25.3268
lowerback 2.10821 4.66274 -3.63042
upperback 3.20798 6.0431 -8.59738
thorax 2.72497 2.94919 -6.93042
lowerneck -8.84939 14.7874 2.99848
upperneck 31.6355 22.1734 -7.34049
head 13.3672 8.89163 -0.171035
rclavicle -2.54444e-014 8.26944e-014
rhumerus -25.9184 -6.10077 -84.1423
rradius 27.1429
rwrist 16.0696
rhand -9.39728 -22.1173
rfingers 7.12502
rthumb 16.564 -51.4304
lclavicle -2.54444e-014 8.26944e-014
lhumerus -32.1687 34.7303 54.4732
lradius 24.1262
lwrist -36.1123
lhand -10.5644 26.1411
lfingers 7.12502
lthumb 15.4401 55.5444
rfemur -33.1582 -10.5291 24.5946
rtibia 19.677
rfoot -6.73903 -21.2863
rtoes 4.63689
lfemur -8.69605 -9.61281 -5.81029
ltibia 24.7615
lfoot -14.1526 -8.04364
ltoes -11.5334
364
root 9.36696 17.8536 4.51096 33.1196 -74.5289 -24.6353
lowerback 2.10823 4.67835 -3.61645
upperback 3.21808 6.06677 -8.59305
thorax 2.73891 2.96227 -6.93297
lowerneck -8.8197 14.7708 3.00589
upperneck 31.6324 22.1518 -7.33809
head 13.3588 8.88723 -0.176967
rclavicle -3.33958e-014 6.36111e-015
rhumerus -25.9448 -6.27364 -83.9868
rradius 27.0978
rwrist 16.0781
rhand -9.4506 -22.13
rfingers 7.12502
rthumb 16.5126 -51.4474
lclavicle -3.33958e-014 6.36111e-015
lhumerus -32.5006 34.9713 54.3298
lradius 24.0485
lwrist -35.9437
lhand -10.3463 26.1722
lfingers 7.12502
lthumb 15.6501 55.5592
rfemur -33.0503 -9.91622 24.0641
rtibia 19.2317
rfoot -6.65143 -21.6452
rtoes 4.80561
lfemur -8.45249 -9.74864 -5.65399
ltibia 24.9403
lfoot -14.0388 -8.42148
ltoes -12.0588
365
root 9.22742 17.8443 4.48382 32.4825 -74.2636 -23.9959
lowerback 2.11645 4.69915 -3.58844
upperback 3.22321 6.09636 -8.59282
thorax 2.74562 2.97881 -6.9486
lowerneck -8.78196 14.7506 3.02531
upperneck 31.6296 22.1214 -7.33175
head 13.349 8.88119 -0.185196
rclavicle -1.59028e-014 0
rhumerus -25.9749 -6.45227 -83.846
rradius 27.0615
rwrist 16.085
rhand -9.49953 -22.1392
rfingers 7.12502
rthumb 16.4655 -51.4605
lclavicle -1.59028e-014 0
lhumerus -32.8171 35.1874 54.1892
lradius 23.9858
lwrist -35.7169
lhand -10.1382 26.2226
lfingers 7.12502
lthumb 15.8506 55.5938
rfemur -32.9486 -9.3335 23.569
rtibia 18.9078
rfoot -6.56133 -21.9593
rtoes 5.00994
lfemur -8.21308 -9.88881 -5.48596
ltibia 25.1435
lfoot -13.8917 -8.81387
ltoes -12.5902
366
root 9.08649 17.8347 4.45571 31.8886 -74.0043 -23.4105
lowerback 2.11909 4.71852 -3.56125
upperback 3.23342 6.12513 -8.58386
thorax 2.7596 2.99485 -6.95369
lowerneck -8.74865 14.7341 3.0403
upperneck 31.6247 22.0994 -7.33319
head 13.3406 8.87722 -0.193865
rclavicle 2.54444e-014 5.725e-014
rhumerus -25.9872 -6.60434 -83.7121
rradius 27.0305
rwrist 16.0912
rhand -9.54588 -22.1426
rfingers 7.12502
rthumb 16.4209 -51.4676
lclavicle 2.54444e-014 5.725e-014
lhumerus -33.1244 35.4221 54.0562
lradius 23.9385
lwrist -35.441
lhand -9.94256 26.2947
lfingers 7.12502
lthumb 16.039 55.6508
rfemur -32.8565 -8.79149 23.1188
rtibia 18.7054
rfoot -6.46659 -22.2186
rtoes 5.24115
lfemur -7.97859 -10.0341 -5.30545
ltibia 25.3704
lfoot -13.7068 -9.21976
ltoes -13.1245
367
root 8.9442 17.8249 4.42667 31.337 -73.7501 -22.8785
lowerback 2.12169 4.73881 -3.52761
upperback 3.24415 6.15536 -8.57124
thorax 2.77453 3.01182 -6.9584
lowerneck -8.7146 14.7186 3.05626
upperneck 31.6204 22.079 -7.33523
head 13.3326 8.87389 -0.20267
rclavicle -3.49861e-014 1.27222e-014
rhumerus -25.9902 -6.74204 -83.5887
rradius 27.0054
rwrist 16.097
rhand -9.58939 -22.1387
rfingers 7.12502
rthumb 16.379 -51.4671
lclavicle -3.49861e-014 1.27222e-014
lhumerus -33.419 35.6629 53.9278
lradius 23.9054
lwrist -35.1154
lhand -9.76965 26.3816
lfingers 7.12502
lthumb 16.2055 55.7242
rfemur -32.7746 -8.29981 22.7209
rtibia 18.6213
rfoot -6.37728 -22.4127
rtoes 5.50743
lfemur -7.75136 -10.1862 -5.11169
ltibia 25.6225
lfoot -13.4804 -9.63915
ltoes -13.6664
368
root 8.80047 17.8149 4.39667 30.8307 -73.5011 -22.4043
lowerback 2.12585 4.76137 -3.48433
upperback 3.25481 6.18869 -8.55617
thorax 2.78958 3.03066 -6.96596
lowerneck -8.67847 14.7025 3.07657
upperneck 31.6173 22.0568 -7.33716
head 13.3252 8.87022 -0.212451
rclavicle -4.77083e-015 -9.54166e-015
rhumerus -25.9863 -6.86936 -83.4768
rradius 26.9882
rwrist 16.101
rhand -9.61546 -22.1308
rfingers 7.12502
rthumb 16.3539 -51.4613
lclavicle -4.77083e-015 -9.54166e-015
lhumerus -33.6961 35.9008 53.8066
lradius 23.8865
lwrist -34.7391
lhand -9.62141 26.489
lfingers 7.12502
lthumb 16.3482 55.8199
rfemur -32.7002 -7.86252 22.3822
rtibia 18.6509
rfoot -6.28744 -22.537
rtoes 5.79051
lfemur -7.53037 -10.347 -4.90309
ltibia 25.8992
lfoot -13.2078 -10.0712
ltoes -14.2086
369
root 8.65527 17.8047 4.36572 30.3637 -73.2571 -21.9823
lowerback 2.13137 4.78463 -3.43333
upperback 3.2659 6.22305 -8.53795
thorax 2.80491 3.05025 -6.97451
lowerneck -8.63959 14.6863 3.10039
upperneck 31.6146 22.0343 -7.34037
head 13.318 8.86661 -0.223442
rclavicle 5.725e-014 -8.90555e-014
rhumerus -25.9744 -6.98147 -83.377
rradius 26.9798
rwrist 16.1022
rhand -9.6277 -22.1165
rfingers 7.12502
rthumb 16.3421 -51.4479
lclavicle 5.725e-014 -8.90555e-014
lhumerus -33.9554 36.1346 53.6948
lradius 23.8829
lwrist -34.3106
lhand -9.49519 26.6184
lfingers 7.12502
lthumb 16.4697 55.9393
rfemur -32.6326 -7.48614 22.106
rtibia 18.79
rfoot -6.19826 -22.5877
rtoes 6.09149
lfemur -7.31677 -10.5176 -4.68119
ltibia 26.2013
lfoot -12.8844 -10.5151
ltoes -14.7513
370
root 8.50868 17.7945 4.33385 29.941 -73.0181 -21.6169
lowerback 2.13829 4.80936 -3.37173
upperback 3.27685 6.25947 -8.51741
thorax 2.82043 3.07122 -6.98659
lowerneck -8.59981 14.6697 3.12836
upperneck 31.6142 22.0102 -7.34249
head 13.3118 8.86269 -0.234883
rclavicle -3.65764e-014 1.59028e-014
rhumerus -25.9544 -7.07945 -83.2902
rradius 26.98
rwrist 16.1003
rhand -9.63362 -22.0971
rfingers 7.12502
rthumb 16.3364 -51.4291
lclavicle -3.65764e-014 1.59028e-014
lhumerus -34.1921 36.3624 53.5944
lradius 23.8938
lwrist -33.8327
lhand -9.38886 26.7689
lfingers 7.12502
lthumb 16.5721 56.0813
rfemur -32.5718 -7.17166 21.8965
rtibia 19.0332
rfoot -6.10893 -22.5639
rtoes 6.40497
lfemur -7.11325 -10.6979 -4.44418
ltibia 26.5307
lfoot -12.5067 -10.9686
ltoes -15.2915
